<svg width="234" height="191" viewBox="0 0 234 191" fill="none" xmlns="http://www.w3.org/2000/svg">
<path d="M226.53 0H195.42V31.11H226.53V0Z" fill="url(#paint0_linear)"/>
<path d="M233.25 49.1101H195.42V86.9401H233.25V49.1101Z" fill="url(#paint1_linear)"/>
<path d="M182.36 12.72H163.1V31.98H182.36V12.72Z" fill="url(#paint2_linear)"/>
<path d="M154.44 49.26H129.64H27.87C12.54 49.26 0 61.8 0 77.13V162.93C0 178.26 12.54 190.8 27.87 190.8H154.44C169.77 190.8 182.31 178.26 182.31 162.93V79.85V77.13V49.26H154.44ZM151.01 162.42H131.17V108.39C131.17 101.24 125.32 95.39 118.17 95.39H114.16C107.01 95.39 101.16 101.24 101.16 108.39V162.42H79.07V108.39C79.07 101.24 73.22 95.39 66.07 95.39H62.06C54.91 95.39 49.06 101.24 49.06 108.39V162.42H31.35V142.55V136.87V106.16C31.35 90.83 43.89 78.29 59.22 78.29H64.37C73.8 78.29 82.17 83.05 87.21 90.27C92.26 83.05 100.62 78.29 110.05 78.29H115.2H151.02V162.42H151.01Z" fill="url(#paint3_linear)"/>
<defs>
<linearGradient id="paint0_linear" x1="236.134" y1="-20.3676" x2="157.889" y2="91.3785" gradientUnits="userSpaceOnUse">
<stop offset="0.3503" stop-color="#9DD29C"/>
<stop offset="0.6818" stop-color="#27AAE1"/>
<stop offset="1" stop-color="#3777BC"/>
</linearGradient>
<linearGradient id="paint1_linear" x1="262.864" y1="-1.26829" x2="184.618" y2="110.478" gradientUnits="userSpaceOnUse">
<stop offset="0.3503" stop-color="#9DD29C"/>
<stop offset="0.6818" stop-color="#27AAE1"/>
<stop offset="1" stop-color="#3777BC"/>
</linearGradient>
<linearGradient id="paint2_linear" x1="213.758" y1="-36.2515" x2="135.512" y2="75.4946" gradientUnits="userSpaceOnUse">
<stop offset="0.3503" stop-color="#9DD29C"/>
<stop offset="0.6818" stop-color="#27AAE1"/>
<stop offset="1" stop-color="#3777BC"/>
</linearGradient>
<linearGradient id="paint3_linear" x1="214.756" y1="-3.56551" x2="61.0158" y2="150.174" gradientUnits="userSpaceOnUse">
<stop offset="0.3503" stop-color="#9DD29C"/>
<stop offset="0.6818" stop-color="#27AAE1"/>
<stop offset="1" stop-color="#3777BC"/>
</linearGradient>
</defs>
</svg>
